 http://img21.imageshack.us/img21/8382/realsteelq.jpg


Verenigde Staten / India
Actie / Drama
127 minuten

geregisseerd door Shawn Levy
met Hugh Jackman, Evangeline Lilly en Kevin Durand

Een verhaal dat zich afspeelt in het jaar 2020, waar robotboxen een populaire sport is. Een promotor (Hugh Jackman) die moeite heeft zijn hoofd boven water te houden stuit op een afgeschreven robot en denkt er een kampioen van te kunnen maken. Terwijl hij samen met de robot furore maakt, komt hij erachter dat hij een zoontje van elf jaar oud heeft, die hem wil leren kennen.


Vertaald door Simply ReleaseS Toppers
Jesprulin, Suurtje & Tokke





Screenshots:
 
http://img11.imageshack.us/img11/8897/screenshot1cfb.jpg
 
http://img94.imageshack.us/img94/6943/screenshot2gmn.jpg
 
http://img190.imageshack.us/img190/3460/screenshot3ui.jpg
 
http://img265.imageshack.us/img265/8520/screenshot4tz.jpg



INFO;


Video
ID                                       : 0
Format                                   : MPEG-4 Visual
Format profile                           : Advanced Simple@L5
Format settings, BVOP                    : 1
Format settings, QPel                    : No
Format settings, GMC                     : No warppoints
Format settings, Matrix                  : Custom
Codec ID                                 : XVID
Codec ID/Hint                            : XviD
Duration                                 : 1h 55mn
Bit rate                                 : 722 Kbps
Width                                    : 608 pixels
Height                                   : 256 pixels
Display aspect ratio                     : 2.40:1
Frame rate                               : 25.000 fps
Color space                              : YUV
Chroma subsampling                       : 4:2:0
Bit depth                                : 8 bits
Scan type                                : Progressive
Compression mode                         : Lossy
Bits/(Pixel*Frame)                       : 0.186
Stream size                              : 599 MiB (86%)
Writing library                          : XviD 64

Audio
ID                                       : 1
Format                                   : MPEG Audio
Format version                           : Version 1
Format profile                           : Layer 3
Mode                                     : Joint stereo
Mode extension                           : MS Stereo
Codec ID                                 : 55
Codec ID/Hint                            : MP3
Duration                                 : 1h 55mn
Bit rate mode                            : Variable
Bit rate                                 : 109 Kbps
Nominal bit rate                         : 128 Kbps
Channel(s)                               : 2 channels
Sampling rate                            : 48.0 KHz
Compression mode                         : Lossy
Stream size                              : 90.3 MiB (13%)
Alignment                                : Aligned on interleaves
Interleave, duration                     : 24 ms (0.60 video frame)
Interleave, preload duration             : 525 ms
Writing library                          : LAME3.98r


 
http://www.imdb.com/title/tt0433035/ 
http://www.moviemeter.nl/film/67008


Deze film wordt u aangeboden door het DutchReleaseTeam.
Voor de reviews van de nieuwste films, muziek, series, games etc
ga dan eens naar http://www.hetmultimediacafe.be

DutchReleaseteam = Hardcoded Dutch Subs